
<svg version="1.0" xmlns="http://www.w3.org/2000/svg"
 width="20px" height="20px" viewBox="0 0 1017.000000 1280.000000"
 preserveAspectRatio="xMidYMid meet">
<g transform="translate(0.000000,1280.000000) scale(0.100000,-0.100000)"
fill="#f15736" stroke="none">
<path d="M4765 12784 c-202 -21 -424 -68 -600 -125 -135 -45 -390 -164 -381
-178 4 -5 1 -13 -5 -17 -8 -4 -9 -3 -5 4 11 18 -3 15 -40 -9 -19 -11 -32 -24
-29 -29 3 -4 -3 -14 -13 -21 -15 -13 -16 -12 -3 4 22 28 -2 20 -39 -14 -19
-17 -28 -27 -20 -23 10 5 9 0 -4 -14 -21 -25 -36 -31 -16 -7 20 24 -5 17 -26
-7 -12 -14 -14 -18 -4 -13 8 4 -21 -30 -65 -76 -44 -46 -82 -83 -84 -81 -3 1
28 36 69 77 41 41 70 75 63 75 -6 0 -40 -31 -76 -69 -56 -60 -70 -83 -105
-172 -124 -318 -82 -497 140 -602 55 -26 338 -135 373 -144 17 -4 18 -3 5 7
-13 10 -13 11 0 7 8 -2 15 -10 15 -18 0 -7 9 -15 20 -17 17 -3 18 -1 5 8 -13
10 -13 11 0 7 8 -2 15 -9 15 -16 0 -6 20 -23 44 -36 53 -30 64 -32 31 -4 l-25
21 25 -14 c14 -9 25 -19 25 -24 0 -15 16 -34 27 -34 6 0 5 7 -3 18 -7 9 -1 6
14 -7 30 -27 37 -41 10 -20 -10 7 -7 1 6 -14 26 -29 37 -35 25 -14 -4 6 5 1
19 -12 15 -14 27 -27 27 -29 0 -3 -9 3 -20 13 -27 25 -25 11 4 -28 68 -91 99
-200 100 -352 0 -108 -11 -160 -59 -269 -7 -15 -5 -17 6 -11 8 5 11 5 6 -1 -5
-5 -14 -9 -20 -9 -5 0 -12 -6 -15 -14 -3 -9 0 -11 8 -6 9 6 11 4 6 -4 -5 -7
-11 -10 -14 -7 -7 7 -32 -13 -32 -26 0 -6 8 -4 18 3 9 7 6 1 -7 -14 -27 -30
-41 -37 -20 -9 11 14 10 14 -8 -2 -13 -10 -20 -23 -17 -28 3 -4 0 -7 -8 -6 -7
2 -12 -2 -11 -9 1 -6 -5 -17 -15 -25 -15 -12 -16 -11 -3 5 7 9 9 17 3 17 -12
0 -34 -25 -27 -32 3 -3 -3 -11 -12 -19 -16 -13 -17 -12 -4 4 17 21 8 22 -24 1
-14 -9 -23 -20 -20 -24 3 -5 0 -12 -6 -16 -8 -4 -9 -3 -5 4 10 17 1 15 -47 -9
-62 -32 -170 -67 -260 -84 -69 -13 -314 -15 -1876 -15 l-1796 0 2 -512 c2
-282 4 -1100 6 -1818 l2 -1305 27 -89 c31 -104 104 -260 117 -252 5 3 15 -2
22 -12 13 -15 12 -16 -4 -3 -9 7 -17 9 -17 3 0 -12 25 -34 32 -27 3 3 11 -3
19 -12 13 -16 12 -17 -4 -4 -32 26 -17 -3 25 -46 42 -43 73 -59 47 -25 -11 15
-11 15 1 4 8 -7 15 -18 15 -24 0 -6 6 -13 14 -16 9 -3 11 0 6 8 -5 9 -4 11 4
6 6 -4 9 -11 6 -16 -8 -13 62 -47 132 -65 82 -21 233 -19 326 4 85 22 140 47
132 61 -3 5 0 12 6 16 8 5 9 3 4 -6 -5 -8 -3 -11 6 -8 8 3 14 10 14 15 0 6 4
15 9 20 5 5 6 3 2 -4 -16 -28 12 -10 57 35 45 46 61 71 35 56 -8 -4 -10 -3 -5
2 5 5 14 9 20 9 19 0 91 147 148 300 29 77 61 157 71 177 20 41 25 73 7 48 -9
-13 -10 -13 -6 0 2 8 9 15 15 15 13 0 56 64 49 72 -3 2 -14 -11 -26 -29 -11
-18 -21 -29 -21 -25 0 15 41 67 49 63 9 -6 70 54 70 67 0 5 3 12 7 15 4 4 4 1
0 -5 -10 -17 -7 -17 45 9 60 29 181 35 272 14 38 -9 116 -34 173 -57 98 -38
109 -46 186 -122 44 -45 84 -81 88 -80 4 1 16 -8 26 -20 l19 -22 -22 19 c-13
11 -23 15 -23 9 0 -13 35 -45 42 -37 3 3 16 -10 28 -28 l22 -33 -26 30 c-41
47 -31 23 28 -67 195 -301 315 -712 336 -1158 10 -209 -1 -365 -40 -610 -37
-224 -68 -365 -111 -500 -34 -105 -103 -271 -143 -340 -29 -50 -32 -65 -14
-54 8 4 10 3 5 -2 -5 -5 -13 -9 -17 -9 -11 0 -73 -95 -67 -102 3 -2 15 12 27
31 20 33 41 53 24 23 -21 -36 -47 -67 -52 -63 -7 7 -32 -13 -32 -26 0 -6 8 -4
18 3 15 13 16 12 3 -4 -8 -9 -16 -15 -19 -12 -7 7 -32 -15 -32 -27 0 -6 8 -4
18 3 15 13 16 12 3 -3 -7 -10 -17 -16 -21 -13 -5 3 -27 -17 -50 -44 -93 -112
-203 -175 -386 -221 -119 -30 -209 -25 -308 15 -15 7 -17 5 -11 -6 5 -8 5 -11
-1 -6 -5 5 -9 12 -9 15 0 11 -89 97 -100 97 -10 0 -65 93 -64 110 0 6 14 -16
30 -49 42 -81 45 -66 4 19 -19 39 -57 133 -86 210 -71 192 -148 343 -168 331
-4 -3 -28 16 -52 41 -24 25 -37 42 -29 38 13 -8 13 -7 1 8 -15 19 -36 23 -25
5 4 -7 3 -8 -5 -4 -6 4 -9 11 -6 16 9 15 -92 60 -169 77 -105 22 -247 20 -326
-6 -75 -24 -146 -63 -143 -78 1 -6 -8 -19 -20 -29 l-22 -19 19 23 c32 38 4 24
-41 -20 -45 -44 -60 -76 -20 -42 l22 19 -19 -22 c-10 -12 -23 -21 -28 -20 -6
1 -13 -4 -16 -12 -3 -9 0 -11 9 -6 8 5 11 4 6 -1 -5 -5 -14 -9 -20 -9 -5 0
-12 -6 -15 -14 -3 -9 0 -11 8 -6 9 5 11 4 6 -4 -4 -6 -12 -9 -17 -5 -13 8 -63
-104 -94 -210 l-25 -88 0 -1864 0 -1864 5085 0 5085 0 0 5090 0 5090 -1868 0
c-1859 0 -1869 0 -1931 21 -35 11 -88 31 -118 44 -30 14 -60 22 -66 18 -5 -3
-7 -1 -4 4 4 6 -4 18 -18 27 -35 23 -45 19 -15 -5 23 -20 23 -20 2 -8 -13 8
-23 19 -24 24 0 14 -18 35 -30 35 -6 0 -4 -8 3 -17 11 -15 10 -15 -8 1 -13 10
-20 22 -18 26 2 4 -4 15 -15 25 -11 10 -20 15 -20 10 0 -12 -29 15 -52 49 -16
25 -13 23 17 -9 l36 -40 -31 48 c-48 73 -78 145 -91 221 -20 117 4 293 52 388
23 45 25 59 3 32 -14 -18 -15 -18 -4 4 7 13 14 21 17 18 8 -7 33 13 33 26 0 6
-8 4 -17 -3 -16 -13 -17 -12 -4 3 7 10 17 16 20 13 9 -5 94 79 91 90 -1 4 2
10 6 13 4 4 4 1 0 -5 -10 -18 2 -16 32 6 51 35 167 89 308 140 161 60 269 111
269 128 0 6 4 15 9 20 5 5 6 3 2 -4 -11 -19 9 -16 25 4 8 9 13 18 12 20 -2 1
-1 2 0 1 2 -2 11 3 20 11 19 15 23 36 5 25 -7 -4 -8 -3 -4 5 4 6 12 9 17 5 5
-3 19 16 31 43 43 95 27 236 -50 430 -30 79 -48 108 -100 164 -35 38 -69 69
-75 69 -6 0 18 -30 55 -67 60 -62 106 -128 95 -139 -2 -3 -10 10 -18 28 -7 18
-46 68 -88 111 -41 42 -71 77 -66 77 4 0 0 9 -10 20 -22 25 -43 27 -24 3 13
-16 12 -17 -4 -4 -9 8 -15 16 -12 19 7 7 -15 32 -27 32 -6 0 -4 -8 3 -17 11
-16 11 -16 -1 -5 -8 7 -15 18 -15 24 0 6 -6 13 -14 16 -9 3 -11 0 -6 -9 5 -8
4 -11 -1 -6 -5 5 -9 14 -9 19 0 6 -6 13 -14 16 -9 3 -11 0 -6 -8 5 -9 4 -11
-4 -6 -6 4 -9 11 -6 16 7 11 -124 84 -255 142 -191 84 -355 129 -680 185 -191
32 -222 35 -455 38 -137 1 -268 1 -290 -1z m143 -11 c-15 -2 -42 -2 -60 0 -18
2 -6 4 27 4 33 0 48 -2 33 -4z m280 0 c-15 -2 -42 -2 -60 0 -18 2 -6 4 27 4
33 0 48 -2 33 -4z m-395 -10 c-13 -2 -33 -2 -45 0 -13 2 -3 4 22 4 25 0 35 -2
23 -4z m485 0 c-10 -2 -28 -2 -40 0 -13 2 -5 4 17 4 22 1 32 -1 23 -4z m-623
-14 c-22 -4 -51 -8 -65 -7 -35 1 34 15 75 16 25 0 23 -2 -10 -9z m750 1 c27
-7 27 -8 5 -8 -14 0 -38 4 -55 8 -27 7 -27 8 -5 8 14 0 39 -4 55 -8z m-875
-20 c-14 -4 -34 -8 -45 -8 -16 0 -15 2 5 8 14 4 34 8 45 8 16 0 15 -2 -5 -8z
m957 4 c-3 -3 -12 -4 -19 -1 -8 3 -5 6 6 6 11 1 17 -2 13 -5z m56 -11 c-7 -2
-21 -2 -30 0 -10 3 -4 5 12 5 17 0 24 -2 18 -5z m-1113 -13 c-34 -11 -60 -11
-35 0 11 5 29 8 40 8 16 0 15 -2 -5 -8z m1215 0 c27 -7 27 -8 5 -8 -14 0 -38
4 -55 8 -27 7 -27 8 -5 8 14 0 39 -4 55 -8z m-1305 -20 c-8 -5 -24 -9 -35 -9
-16 1 -16 2 5 9 35 11 48 11 30 0z m1405 0 c13 -5 14 -9 5 -9 -8 0 -24 4 -35
9 -13 5 -14 9 -5 9 8 0 24 -4 35 -9z m90 -20 c25 -11 -1 -11 -35 0 -20 6 -21
8 -5 8 11 0 29 -3 40 -8z m-1635 -20 c-8 -5 -22 -9 -30 -9 -10 0 -8 3 5 9 27
12 43 12 25 0z m1715 0 c13 -5 14 -9 5 -9 -8 0 -24 4 -35 9 -13 5 -14 9 -5 9
8 0 24 -4 35 -9z m-1775 -20 c-8 -5 -19 -10 -25 -10 -5 0 -3 5 5 10 8 5 20 10
25 10 6 0 3 -5 -5 -10z m-60 -20 c-8 -5 -19 -10 -25 -10 -5 0 -3 5 5 10 8 5
20 10 25 10 6 0 3 -5 -5 -10z m1960 0 c18 -12 2 -12 -25 0 -13 6 -15 9 -5 9 8
0 22 -4 30 -9z m50 -20 c8 -5 11 -10 5 -10 -5 0 -17 5 -25 10 -8 5 -10 10 -5
10 6 0 17 -5 25 -10z m60 -20 c8 -5 11 -10 5 -10 -5 0 -17 5 -25 10 -8 5 -10
10 -5 10 6 0 17 -5 25 -10z m-2201 -14 c-10 -9 -109 -56 -109 -51 0 6 91 54
104 55 5 0 7 -2 5 -4z m2246 -14 c-3 -3 -11 0 -18 7 -9 10 -8 11 6 5 10 -3 15
-9 12 -12z m50 -20 c-3 -3 -11 0 -18 7 -9 10 -8 11 6 5 10 -3 15 -9 12 -12z
m40 -20 c-3 -3 -11 0 -18 7 -9 10 -8 11 6 5 10 -3 15 -9 12 -12z m40 -20 c-3
-3 -11 0 -18 7 -9 10 -8 11 6 5 10 -3 15 -9 12 -12z m-2565 -27 c0 -2 -10 -9
-22 -15 -22 -11 -22 -10 -4 4 21 17 26 19 26 11z m2650 -21 c0 -2 -9 0 -20 6
-11 6 -20 13 -20 16 0 2 9 0 20 -6 11 -6 20 -13 20 -16z m-2999 -321 c-12 -20
-14 -14 -5 12 4 9 9 14 11 11 3 -2 0 -13 -6 -23z m-22 -59 c-6 -16 -20 -58
-30 -94 -10 -36 -18 -55 -18 -43 -1 11 10 54 24 95 14 40 25 75 25 77 0 2 2 2
5 -1 3 -3 0 -18 -6 -34z m3420 -64 c0 -17 -23 34 -33 71 -3 13 3 6 13 -16 11
-22 20 -47 20 -55z m18 -72 c-3 -8 -6 -5 -6 6 -1 11 2 17 5 13 3 -3 4 -12 1
-19z m22 -148 c0 -55 -5 -96 -14 -115 -11 -23 -13 -24 -7 -5 4 14 7 76 7 138
0 62 3 103 6 90 4 -13 7 -61 8 -108z m-3512 83 c-3 -10 -5 -4 -5 12 0 17 2 24
5 18 2 -7 2 -21 0 -30z m7 -153 c5 -30 5 -32 -4 -11 -6 14 -13 52 -15 85 -4
61 -4 61 4 11 5 -27 11 -66 15 -85z m99 -145 c18 -15 23 -22 11 -16 -22 11
-94 86 -94 99 0 4 12 -7 26 -25 13 -18 39 -44 57 -58z m77 -51 c0 -2 -9 0 -20
6 -11 6 -20 13 -20 16 0 2 9 0 20 -6 11 -6 20 -13 20 -16z m3190 1 c0 -2 -10
-9 -22 -15 -22 -11 -22 -10 -4 4 21 17 26 19 26 11z m-3150 -15 c8 -5 11 -10
5 -10 -5 0 -17 5 -25 10 -8 5 -10 10 -5 10 6 0 17 -5 25 -10z m3070 -30 c-19
-11 -39 -19 -45 -19 -5 0 6 8 25 19 19 11 40 19 45 19 6 0 -6 -8 -25 -19z
m-2970 -10 c8 -5 11 -10 5 -10 -5 0 -17 5 -25 10 -8 5 -10 10 -5 10 6 0 17 -5
25 -10z m60 -20 c18 -12 2 -12 -25 0 -13 6 -15 9 -5 9 8 0 22 -4 30 -9z m2840
0 c-8 -5 -19 -10 -25 -10 -5 0 -3 5 5 10 8 5 20 10 25 10 6 0 3 -5 -5 -10z
m-2790 -20 c8 -5 11 -10 5 -10 -5 0 -17 5 -25 10 -8 5 -10 10 -5 10 6 0 17 -5
25 -10z m50 -20 c8 -5 11 -10 5 -10 -5 0 -17 5 -25 10 -8 5 -10 10 -5 10 6 0
17 -5 25 -10z m2630 0 c-8 -5 -19 -10 -25 -10 -5 0 -3 5 5 10 8 5 20 10 25 10
6 0 3 -5 -5 -10z m-2580 -20 c8 -5 11 -10 5 -10 -5 0 -17 5 -25 10 -8 5 -10
10 -5 10 6 0 17 -5 25 -10z m2520 0 c-8 -5 -19 -10 -25 -10 -5 0 -3 5 5 10 8
5 20 10 25 10 6 0 3 -5 -5 -10z m-80 -34 c0 -2 -9 -6 -20 -9 -11 -3 -18 -1
-14 4 5 9 34 13 34 5z m-2315 -26 c3 -6 -1 -7 -9 -4 -18 7 -21 14 -7 14 6 0
13 -4 16 -10z m2265 6 c0 -2 -7 -7 -16 -10 -8 -3 -12 -2 -9 4 6 10 25 14 25 6z
m-40 -20 c0 -2 -7 -7 -16 -10 -8 -3 -12 -2 -9 4 6 10 25 14 25 6z m-40 -21 c0
-2 -10 -9 -22 -15 -22 -11 -22 -10 -4 4 21 17 26 19 26 11z m-110 -78 c0 -2
-10 -12 -22 -23 l-23 -19 19 23 c18 21 26 27 26 19z m-1832 -152 c-3 -3 -9 2
-12 12 -6 14 -5 15 5 6 7 -7 10 -15 7 -18z m1703 -42 c-12 -20 -14 -14 -5 12
4 9 9 14 11 11 3 -2 0 -13 -6 -23z m-17 -57 c-3 -15 -8 -25 -11 -23 -2 3 -1
17 3 31 3 15 8 25 11 23 2 -3 1 -17 -3 -31z m-1657 -8 c-3 -7 -5 -2 -5 12 0
14 2 19 5 13 2 -7 2 -19 0 -25z m10 -55 c-3 -10 -5 -4 -5 12 0 17 2 24 5 18 2
-7 2 -21 0 -30z m1624 -98 c-6 -95 -8 -105 -9 -50 -2 67 8 179 14 172 2 -1 -1
-57 -5 -122z m-1614 -47 c-2 -24 -4 -5 -4 42 0 47 2 66 4 43 2 -24 2 -62 0
-85z m-22 -124 c-22 -76 -27 -65 -7 14 9 34 18 58 20 53 2 -6 -4 -36 -13 -67z
m1668 -64 c4 -14 0 -9 -9 10 -9 19 -18 51 -20 70 -4 31 -3 30 9 -10 7 -25 16
-56 20 -70z m-2013 -300 c-19 -11 -39 -19 -45 -19 -5 0 6 8 25 19 19 11 40 19
45 19 6 0 -6 -8 -25 -19z m2305 -8 c-3 -3 -11 0 -18 7 -9 10 -8 11 6 5 10 -3
15 -9 12 -12z m40 -20 c-3 -3 -11 0 -18 7 -9 10 -8 11 6 5 10 -3 15 -9 12 -12z
m-2445 -12 c-8 -5 -22 -9 -30 -9 -10 0 -8 3 5 9 27 12 43 12 25 0z m2490 0 c8
-5 11 -10 5 -10 -5 0 -17 5 -25 10 -8 5 -10 10 -5 10 6 0 17 -5 25 -10z
m-2543 -16 c-3 -3 -12 -4 -19 -1 -8 3 -5 6 6 6 11 1 17 -2 13 -5z m2598 -4
c13 -6 15 -9 5 -9 -8 0 -22 4 -30 9 -18 12 -2 12 25 0z m-2638 -6 c-3 -3 -12
-4 -19 -1 -8 3 -5 6 6 6 11 1 17 -2 13 -5z m-72 -14 c-16 -4 -46 -8 -65 -7
l-35 0 40 7 c22 4 51 7 65 7 22 1 22 0 -5 -7z m2780 0 c13 -5 14 -9 5 -9 -8 0
-24 4 -35 9 -13 5 -14 9 -5 9 8 0 24 -4 35 -9z m-6403 -2584 c2 -566 0 -1011
-4 -990 -4 21 -6 563 -5 1204 1 641 3 1086 4 990 2 -96 4 -638 5 -1204z m1631
-663 c-24 -2 -62 -2 -85 0 -24 2 -5 4 42 4 47 0 66 -2 43 -4z m-153 -10 c-8
-3 -27 -12 -42 -20 -16 -7 -28 -11 -28 -9 0 9 54 35 70 35 13 -1 13 -1 0 -6z
m265 -3 c25 -11 -1 -11 -35 0 -20 6 -21 8 -5 8 11 0 29 -3 40 -8z m65 -20 c18
-12 2 -12 -25 0 -13 6 -15 9 -5 9 8 0 22 -4 30 -9z m60 -20 c13 -9 13 -10 0
-10 -8 0 -22 5 -30 10 -13 9 -13 10 0 10 8 0 22 -5 30 -10z m90 -40 c8 -5 11
-10 5 -10 -5 0 -17 5 -25 10 -8 5 -10 10 -5 10 6 0 17 -5 25 -10z m120 -97
l75 -78 -77 75 c-72 69 -83 80 -75 80 1 0 36 -35 77 -77z m-837 -68 c-3 -9 -8
-14 -10 -11 -3 3 -2 9 2 15 9 16 15 13 8 -4z m-22 -52 c-12 -20 -14 -14 -5 12
4 9 9 14 11 11 3 -2 0 -13 -6 -23z m-20 -50 c-12 -20 -14 -14 -5 12 4 9 9 14
11 11 3 -2 0 -13 -6 -23z m-1173 -88 c0 -16 -2 -15 -8 5 -11 34 -11 60 0 35 5
-11 8 -29 8 -40z m2262 -5 c6 -11 8 -20 6 -20 -3 0 -10 9 -16 20 -6 11 -8 20
-6 20 3 0 10 -9 16 -20z m-1129 -17 c-12 -20 -14 -14 -5 12 4 9 9 14 11 11 3
-2 0 -13 -6 -23z m-1112 -48 c0 -5 -4 -3 -9 5 -5 8 -9 22 -9 30 0 16 17 -16
18 -35z m1081 -34 c-24 -63 -69 -151 -75 -151 -3 0 8 26 23 58 16 31 37 78 47
105 10 26 20 46 22 44 2 -3 -5 -28 -17 -56z m1205 19 c9 -16 13 -30 11 -30 -3
0 -12 14 -21 30 -9 17 -13 30 -11 30 3 0 12 -13 21 -30z m-2265 -45 c0 -5 -5
-3 -10 5 -5 8 -10 20 -10 25 0 6 5 3 10 -5 5 -8 10 -19 10 -25z m29 -62 c12
-24 19 -43 16 -43 -5 0 -45 75 -45 86 0 11 6 2 29 -43z m2285 11 c3 -8 2 -12
-4 -9 -6 3 -10 10 -10 16 0 14 7 11 14 -7z m40 -94 c3 -14 -3 -7 -13 15 -11
22 -20 45 -20 50 0 15 26 -37 33 -65z m40 -100 c3 -14 -3 -7 -13 15 -11 22
-20 45 -20 50 0 15 26 -37 33 -65z m-1464 37 c0 -2 -12 -14 -27 -28 l-28 -24
24 28 c23 25 31 32 31 24z m-779 -34 c13 -16 12 -17 -3 -4 -17 13 -22 21 -14
21 2 0 10 -8 17 -17z m2268 -78 c0 -5 -4 -3 -9 5 -5 8 -9 22 -9 30 0 16 17
-16 18 -35z m-2154 -3 c-3 -3 -11 0 -18 7 -9 10 -8 11 6 5 10 -3 15 -9 12 -12z
m535 14 c0 -2 -7 -7 -16 -10 -8 -3 -12 -2 -9 4 6 10 25 14 25 6z m-490 -26 c8
-5 11 -10 5 -10 -5 0 -17 5 -25 10 -8 5 -10 10 -5 10 6 0 17 -5 25 -10z m430
0 c-8 -5 -19 -10 -25 -10 -5 0 -3 5 5 10 8 5 20 10 25 10 6 0 3 -5 -5 -10z
m1699 -50 c0 -9 -4 -8 -9 5 -5 11 -9 27 -9 35 0 9 4 8 9 -5 5 -11 9 -27 9 -35z
m-2064 30 c13 -5 14 -9 5 -9 -8 0 -24 4 -35 9 -13 5 -14 9 -5 9 8 0 24 -4 35
-9z m300 0 c-11 -5 -29 -8 -40 -8 -16 0 -15 2 5 8 34 11 60 11 35 0z m-122
-17 c-23 -2 -64 -2 -90 0 -26 2 -7 3 42 3 50 0 71 -1 48 -3z m1906 -83 c0 -9
-4 -8 -9 5 -5 11 -9 27 -9 35 0 9 4 8 9 -5 5 -11 9 -27 9 -35z m19 -85 c0 -16
-2 -15 -8 5 -11 34 -11 60 0 35 5 -11 8 -29 8 -40z m20 -100 c0 -16 -2 -15 -8
5 -4 14 -8 36 -8 50 0 22 1 22 8 -5 4 -16 8 -39 8 -50z m20 -120 c0 -25 -2
-24 -9 10 -10 51 -10 92 1 50 4 -16 8 -43 8 -60z m21 -184 c2 -76 -6 -40 -12
54 -4 66 -3 77 3 40 4 -27 9 -70 9 -94z m8 -248 c-2 -32 -3 -8 -3 52 0 61 1
87 3 58 2 -29 2 -78 0 -110z m-10 -180 c-2 -16 -4 -5 -4 22 0 28 2 40 4 28 2
-13 2 -35 0 -50z m-10 -85 c-2 -13 -4 -5 -4 17 -1 22 1 32 4 23 2 -10 2 -28 0
-40z m-13 -97 c-4 -23 -9 -40 -11 -37 -3 3 -2 23 2 46 4 23 9 39 11 37 3 -2 2
-23 -2 -46z m-19 -116 c-4 -25 -9 -44 -12 -41 -2 2 -1 25 2 51 4 25 9 44 12
41 2 -2 1 -25 -2 -51z m-20 -120 c-4 -25 -9 -44 -12 -41 -2 2 -1 25 2 51 4 25
9 44 12 41 2 -2 1 -25 -2 -51z m-21 -104 c-4 -17 -9 -30 -11 -27 -3 2 -2 19 2
36 9 41 17 33 9 -9z m-19 -81 c-9 -41 -17 -33 -9 9 4 17 9 30 11 27 3 -2 2
-19 -2 -36z m-21 -74 c-3 -15 -8 -25 -11 -23 -2 3 -1 17 3 31 3 15 8 25 11 23
2 -3 1 -17 -3 -31z m-1975 -20 c-2 -2 -29 -6 -59 -9 -36 -4 -46 -3 -30 3 25 8
97 13 89 6z m166 -6 c18 -5 2 -6 -40 -3 -38 3 -72 7 -74 9 -8 7 84 2 114 -6z
m-300 -20 c-27 -12 -43 -12 -25 0 8 5 22 9 30 9 10 0 8 -3 -5 -9z m419 -11
c31 -11 58 -25 62 -31 4 -6 -3 -5 -16 2 -12 7 -46 20 -74 30 -28 10 -46 19
-39 19 7 1 37 -8 67 -20z m1670 -13 c-3 -15 -8 -25 -11 -23 -2 3 -1 17 3 31 3
15 8 25 11 23 2 -3 1 -17 -3 -31z m-2134 10 c0 -2 -7 -7 -16 -10 -8 -3 -12 -2
-9 4 6 10 25 14 25 6z m-40 -21 c0 -2 -10 -9 -22 -15 -22 -11 -22 -10 -4 4 21
17 26 19 26 11z m2151 -52 c-12 -20 -14 -14 -5 12 4 9 9 14 11 11 3 -2 0 -13
-6 -23z m-20 -54 c-5 -13 -10 -19 -10 -12 -1 15 10 45 15 40 3 -2 0 -15 -5
-28z m-40 -96 c-12 -20 -14 -14 -5 12 4 9 9 14 11 11 3 -2 0 -13 -6 -23z
m-1321 -34 c12 -23 20 -43 18 -45 -3 -2 -14 17 -26 41 -27 56 -20 60 8 4z
m1301 -12 c-10 -9 -11 -8 -5 6 3 10 9 15 12 12 3 -3 0 -11 -7 -18z m-2300 -20
c-10 -9 -11 -8 -5 6 3 10 9 15 12 12 3 -3 0 -11 -7 -18z m2274 -36 c-21 -43
-29 -39 -8 4 9 19 18 33 21 31 2 -2 -4 -18 -13 -35z m-2295 -18 c-11 -17 -11
-17 -6 0 3 10 6 24 7 30 0 9 2 9 5 0 3 -7 0 -20 -6 -30z m1070 -28 c0 -5 -5
-3 -10 5 -5 8 -10 20 -10 25 0 6 5 3 10 -5 5 -8 10 -19 10 -25z m-1089 -22
c-12 -20 -14 -14 -5 12 4 9 9 14 11 11 3 -2 0 -13 -6 -23z m2280 4 c-10 -9
-11 -8 -5 6 3 10 9 15 12 12 3 -3 0 -11 -7 -18z m-1171 -32 c0 -5 -5 -3 -10 5
-5 8 -10 20 -10 25 0 6 5 3 10 -5 5 -8 10 -19 10 -25z m-1123 -27 c-3 -8 -6
-5 -6 6 -1 11 2 17 5 13 3 -3 4 -12 1 -19z m1142 -33 c0 -5 -4 -3 -9 5 -5 8
-9 22 -9 30 0 16 17 -16 18 -35z m21 -50 c0 -5 -5 -3 -10 5 -5 8 -10 20 -10
25 0 6 5 3 10 -5 5 -8 10 -19 10 -25z m19 -60 c0 -5 -4 -3 -9 5 -5 8 -9 22 -9
30 0 16 17 -16 18 -35z m15 -31 c3 -8 2 -12 -4 -9 -6 3 -10 10 -10 16 0 14 7
11 14 -7z m926 -17 c0 -1 -37 -38 -82 -82 l-83 -80 80 83 c74 76 85 87 85 79z
m-805 -177 c21 -22 37 -40 34 -40 -3 0 -23 18 -44 40 -21 22 -37 40 -34 40 3
0 23 -18 44 -40z m605 0 c-19 -11 -39 -19 -45 -19 -5 0 6 8 25 19 19 11 40 19
45 19 6 0 -6 -8 -25 -19z m-70 -30 c-8 -5 -19 -10 -25 -10 -5 0 -3 5 5 10 8 5
20 10 25 10 6 0 3 -5 -5 -10z m-50 -20 c-8 -5 -22 -9 -30 -9 -10 0 -8 3 5 9
27 12 43 12 25 0z m-380 -20 c8 -5 11 -10 5 -10 -5 0 -17 5 -25 10 -8 5 -10
10 -5 10 6 0 17 -5 25 -10z m315 0 c-11 -5 -27 -9 -35 -9 -9 0 -8 4 5 9 11 5
27 9 35 9 9 0 8 -4 -5 -9z m-115 -24 c8 -2 -21 -4 -65 -4 -44 0 -89 3 -100 7
-18 7 130 4 165 -3z m47 8 c-3 -3 -12 -4 -19 -1 -8 3 -5 6 6 6 11 1 17 -2 13
-5z"/>
<path d="M980 4135 c18 -19 36 -32 39 -30 6 7 -50 65 -63 65 -5 0 5 -16 24
-35z"/>
</g>
</svg>
